<?xml version="1.0" encoding="utf-8"?>
<!-- Generator: Adobe Illustrator 27.5.0, SVG Export Plug-In . SVG Version: 6.00 Build 0)  -->
<svg version="1.1" id="Layer_1" xmlns="http://www.w3.org/2000/svg" xmlns:xlink="http://www.w3.org/1999/xlink" x="0px" y="0px"
	 viewBox="0 0 560 93" style="enable-background:new 0 0 560 93;" xml:space="preserve">
<g>
	<path d="M44.1,52.3H18.9L23,29.2h13.3l-2.4,13.2h11.9l2.4-13.2h13.3l-6.4,36.5H41.8L44.1,52.3z"/>
	<path d="M102.9,39.5l-2.7,15.8c-0.2,1.2-0.8,2.4-1.7,3.6c-0.9,1.2-1.9,2.3-3.1,3.3c-1.2,1-2.5,1.8-3.8,2.4c-1.3,0.6-2.5,1-3.6,1
		H69.3c-1,0-2-0.3-3-0.8c-1-0.5-1.9-1.3-2.7-2.1s-1.5-1.9-2-3c-0.5-1.1-0.8-2.2-0.8-3.3c0-0.2,0-0.4,0-0.6c0-0.2,0-0.4,0.1-0.6
		l2.7-15.8c0.2-1.2,0.8-2.4,1.7-3.6c0.9-1.2,1.9-2.3,3.1-3.3s2.5-1.8,3.8-2.4c1.3-0.6,2.5-1,3.6-1h18.8c1,0,2,0.3,3,0.8
		c1,0.5,1.9,1.3,2.8,2.1c0.8,0.9,1.5,1.9,2,3c0.5,1.1,0.8,2.2,0.8,3.3c0,0.2,0,0.4,0,0.6S103,39.4,102.9,39.5z M75.2,49.5
		c-0.1,0.7-0.2,1.3-0.2,2c0,1,0.2,1.8,0.7,2.4c0.5,0.6,1.4,0.9,2.8,0.9h4.3c0.9,0,1.6-0.1,2.2-0.4c0.6-0.3,1.1-0.7,1.5-1.1
		s0.7-1,0.9-1.7c0.2-0.6,0.4-1.3,0.5-2l0.8-4.6c0-0.1,0.1-0.3,0.1-0.4c0-0.1,0-0.2,0-0.3v-0.7c0-1-0.3-1.7-0.8-2.3s-1.4-0.9-2.8-0.9
		H81c-1.7,0-2.9,0.4-3.6,1.3c-0.7,0.9-1.2,2-1.4,3.3L75.2,49.5z"/>
	<path d="M129.8,52.3h-25.2l4.1-23.1H122l-2.4,13.2h11.9l2.4-13.2h13.3l-6.4,36.5h-13.3L129.8,52.3z"/>
	<path d="M144.7,65.7l2-11h13.3l-2,11H144.7z M147.7,48.7l1.9-11h13.3l-1.9,11H147.7z"/>
	<path d="M220.9,65.7H208l-10.2-16.7l-3,16.7h-13.3l6.4-36.5h12.9l10.2,16.7l3-16.7h13.3L220.9,65.7z"/>
	<path d="M246.5,66c-2.9,0-5.5-0.3-7.9-0.8c-2.4-0.5-4.3-1.4-6-2.5s-2.9-2.6-3.8-4.4c-0.9-1.8-1.3-3.9-1.3-6.5c0-0.7,0-1.4,0.1-2.1
		c0.1-0.7,0.2-1.5,0.3-2.2v-0.1c0.6-3.3,1.6-6.1,3.1-8.4c1.4-2.3,3.2-4.2,5.4-5.7c2.1-1.5,4.6-2.6,7.4-3.2c2.8-0.7,5.9-1,9.2-1
		c2.9,0,5.5,0.3,7.9,0.8c2.4,0.5,4.3,1.3,6,2.5c1.6,1.1,2.9,2.6,3.8,4.3c0.9,1.8,1.3,3.9,1.3,6.4c0,0.7,0,1.4-0.1,2.2
		c-0.1,0.7-0.2,1.5-0.3,2.3v0.1c-0.6,3.3-1.6,6.2-3.1,8.5c-1.5,2.3-3.3,4.2-5.4,5.7c-2.1,1.5-4.6,2.5-7.4,3.2
		C252.8,65.6,249.7,66,246.5,66z M251.1,39.9c-1.6,0-3,0.2-4.1,0.5s-2,0.8-2.8,1.5s-1.3,1.4-1.7,2.4c-0.4,0.9-0.7,2-1,3.2v0.1
		c-0.1,0.3-0.2,1.1-0.2,2.4c0,1.6,0.5,2.9,1.6,3.8s2.9,1.3,5.6,1.3c1.6,0,2.9-0.2,4-0.5s2.1-0.8,2.8-1.5c0.7-0.6,1.3-1.4,1.8-2.4
		c0.4-0.9,0.8-2,1-3.2v-0.1c0.1-0.4,0.1-0.7,0.2-1.1c0-0.4,0.1-0.7,0.1-1.1c0-1.7-0.5-3-1.6-3.9C255.5,40.3,253.7,39.9,251.1,39.9z"
		/>
	<path d="M277.2,29.2h36.9l-2,11h-11.8l-4.5,25.5h-13.3l4.5-25.5h-11.8L277.2,29.2z"/>
	<path d="M362.3,53.3h-15.5l-2.2,12.4h-13.3l6.4-36.5H368l-2,11h-17l-0.4,2.5h15.5L362.3,53.3z"/>
	<path d="M386.6,66c-2.9,0-5.5-0.3-7.9-0.8c-2.4-0.5-4.3-1.4-6-2.5s-2.9-2.6-3.8-4.4c-0.9-1.8-1.3-3.9-1.3-6.5c0-0.7,0-1.4,0.1-2.1
		c0.1-0.7,0.2-1.5,0.3-2.2v-0.1c0.6-3.3,1.6-6.1,3.1-8.4c1.4-2.3,3.2-4.2,5.4-5.7s4.6-2.6,7.4-3.2c2.8-0.7,5.9-1,9.2-1
		c2.9,0,5.5,0.3,7.9,0.8c2.4,0.5,4.3,1.3,6,2.5c1.6,1.1,2.9,2.6,3.8,4.3c0.9,1.8,1.3,3.9,1.3,6.4c0,0.7,0,1.4-0.1,2.2
		c-0.1,0.7-0.2,1.5-0.3,2.3v0.1c-0.6,3.3-1.6,6.2-3.1,8.5c-1.5,2.3-3.3,4.2-5.4,5.7c-2.1,1.5-4.6,2.5-7.4,3.2
		C392.9,65.6,389.9,66,386.6,66z M391.2,39.9c-1.6,0-3,0.2-4.1,0.5c-1.1,0.3-2,0.8-2.8,1.5c-0.7,0.7-1.3,1.4-1.7,2.4
		c-0.4,0.9-0.7,2-1,3.2v0.1c-0.1,0.3-0.2,1.1-0.2,2.4c0,1.6,0.5,2.9,1.6,3.8c1.1,0.9,2.9,1.3,5.6,1.3c1.6,0,2.9-0.2,4-0.5
		c1.1-0.3,2.1-0.8,2.8-1.5c0.7-0.6,1.3-1.4,1.8-2.4c0.4-0.9,0.8-2,1-3.2v-0.1c0.1-0.4,0.1-0.7,0.2-1.1c0-0.4,0.1-0.7,0.1-1.1
		c0-1.7-0.5-3-1.6-3.9C395.6,40.3,393.8,39.9,391.2,39.9z"/>
	<path d="M458,29.2l-3.2,18.5c-0.6,3.2-1.5,5.9-2.8,8.1c-1.3,2.2-2.9,4.1-4.9,5.5c-2,1.4-4.2,2.5-6.8,3.2c-2.6,0.7-5.4,1.1-8.4,1.2
		c-2.7-0.1-5-0.4-7.1-1c-2.1-0.5-3.9-1.4-5.3-2.4c-1.5-1.1-2.6-2.5-3.3-4.1c-0.8-1.7-1.1-3.6-1.1-6c0-0.7,0-1.4,0.1-2.2
		c0.1-0.7,0.2-1.5,0.3-2.4l3.2-18.5h13.4l-3.3,18.6c-0.1,0.4-0.1,0.7-0.2,1.1c0,0.4-0.1,0.7-0.1,1c0,1.5,0.4,2.6,1.2,3.4
		s2.2,1.3,4.1,1.5c2.4-0.3,4.1-1,5.2-2.1c1.1-1.1,1.8-2.7,2.2-4.9l3.3-18.6H458z"/>
	<path d="M494.9,65.7H482l-10.2-16.7l-3,16.7h-13.3l6.4-36.5h12.9l10.2,16.7l3-16.7h13.3L494.9,65.7z"/>
	<path d="M505.2,29.2h18.1c2.9,0,5.5,0.3,7.8,0.8s4.2,1.3,5.9,2.4c1.6,1.1,2.8,2.5,3.7,4.3c0.8,1.8,1.3,3.9,1.3,6.3
		c0,0.8,0,1.5-0.1,2.3c-0.1,0.7-0.2,1.5-0.3,2.2l-0.1,0.2c-0.6,3.3-1.5,6.1-2.9,8.4c-1.4,2.3-3.2,4.2-5.3,5.6
		c-2.1,1.4-4.5,2.5-7.3,3.1s-5.8,1-9.1,1h-18.1L505.2,29.2z M516.6,40.1L514,54.7h4.8c5.3-0.4,8.3-2.8,9.1-7.2l0.1-0.2
		c0.1-0.7,0.2-1.3,0.2-1.9c0-1.8-0.6-3.1-1.8-4c-1.2-0.9-3.2-1.3-5.9-1.3H516.6z"/>
</g>
</svg>
