<?xml version="1.0" encoding="utf-8"?>
<!-- Generator: Adobe Illustrator 27.5.0, SVG Export Plug-In . SVG Version: 6.00 Build 0)  -->
<svg version="1.1" id="Layer_1" xmlns="http://www.w3.org/2000/svg" xmlns:xlink="http://www.w3.org/1999/xlink" x="0px" y="0px"
	 viewBox="0 0 560 175" style="enable-background:new 0 0 560 175;" xml:space="preserve">
<style type="text/css">
	.st0{fill:#2C2C2C;}
</style>
<g>
	<path class="st0" d="M26.6,33.2h36.9l-2,11H49.7l-4.5,25.5H32l4.5-25.5H24.6L26.6,33.2z"/>
	<path class="st0" d="M89.4,56.3H76.6l-2.4,13.4H61l6.4-36.5h13.3l-2.4,13.2h12.8l2.4-13.2h13.3l-6.4,36.5H87.1L89.4,56.3z"/>
	<path class="st0" d="M138.9,56.3h-19l-0.4,2.5h20.6l-2,11h-33.8l6.4-36.5h33.8l-2,11H122l-0.4,2.5h19L138.9,56.3z"/>
	<path class="st0" d="M163.7,58.7h18.1c-0.9-1.1-1.8-2.3-2.8-3.5c-1-1.2-2-2.4-2.9-3.7s-1.7-2.6-2.3-4s-1-2.8-1.1-4.3v-0.3
		c0-0.4,0.1-0.8,0.2-1.3c0.2-1.2,0.6-2.3,1.3-3.3c0.6-1,1.4-1.9,2.2-2.7c0.9-0.7,1.8-1.3,2.9-1.8c1-0.4,2.1-0.6,3.2-0.6h23.9l-2,11
		h-15.8c1,1.4,2,2.7,3,4c1,1.3,2,2.5,2.8,3.8c0.9,1.3,1.6,2.6,2.1,3.9c0.5,1.3,0.8,2.8,0.8,4.3c0,0.7-0.1,1.4-0.2,2.1
		c-0.2,1.1-0.5,2.1-1.1,3c-0.5,0.9-1.2,1.7-1.9,2.4s-1.6,1.2-2.5,1.6c-1,0.4-2,0.6-3,0.6h-26.8L163.7,58.7z"/>
	<path class="st0" d="M210.2,33.2h36.9l-2,11h-11.8l-4.5,25.5h-13.3l4.5-25.5h-11.8L210.2,33.2z"/>
	<path class="st0" d="M267.7,64.1h-13.6l-2.9,5.6h-13.7l17.9-36.5h21.3l5,36.5h-13.1L267.7,64.1z M258.8,54.3h7.7l-1.8-11.5
		L258.8,54.3z"/>
	<path class="st0" d="M297.9,69.7h-13.3l6.4-36.5h28.4c1,0,2.1,0.3,3,0.8c1,0.5,1.8,1.2,2.6,2c0.8,0.8,1.4,1.8,1.8,2.9
		c0.4,1.1,0.7,2.2,0.7,3.3c0,0.2,0,0.4,0,0.7c0,0.2,0,0.4-0.1,0.7l-0.6,3.2c-0.2,1.3-0.6,2.6-1.2,3.8c-0.6,1.2-1.3,2.4-2.2,3.4
		c-0.9,1-2,2-3.3,2.8s-2.7,1.5-4.4,2h14.9l-2,11h-21.4c-1-0.1-1.9-0.6-2.8-1.3c-0.9-0.8-1.6-1.7-2.3-2.8c-0.7-1.1-1.2-2.2-1.6-3.4
		c-0.4-1.2-0.7-2.3-0.8-3.3L297.9,69.7z M301.6,48.6h7.6c1.2,0,2.2-0.2,2.9-0.5c0.7-0.3,1.1-0.9,1.3-1.7v-0.3c0-1.3-1.1-1.9-3.4-1.9
		h-7.6L301.6,48.6z"/>
	<path class="st0" d="M401.2,33.2h13.7L397,69.7h-13.2l-1.4-14.4l-6.4,14.4h-13.2l-5-36.5h13.1l2.1,13.8l7.2-13.8h11.8L394,47
		L401.2,33.2z"/>
	<path class="st0" d="M433.6,64.1H420l-2.9,5.6h-13.7l17.9-36.5h21.3l5,36.5h-13.1L433.6,64.1z M424.7,54.3h7.7l-1.8-11.5
		L424.7,54.3z"/>
	<path class="st0" d="M463.7,69.7h-13.3l6.4-36.5h28.4c1,0,2.1,0.3,3,0.8c1,0.5,1.8,1.2,2.6,2c0.8,0.8,1.4,1.8,1.8,2.9
		c0.4,1.1,0.7,2.2,0.7,3.3c0,0.2,0,0.4,0,0.7s0,0.4-0.1,0.7l-0.6,3.2c-0.2,1.3-0.6,2.6-1.2,3.8s-1.3,2.4-2.2,3.4s-2,2-3.3,2.8
		c-1.3,0.8-2.7,1.5-4.4,2h14.9l-2,11h-21.4c-1-0.1-1.9-0.6-2.8-1.3c-0.9-0.8-1.6-1.7-2.3-2.8s-1.2-2.2-1.6-3.4
		c-0.4-1.2-0.7-2.3-0.8-3.3L463.7,69.7z M467.4,48.6h7.6c1.2,0,2.2-0.2,2.9-0.5c0.7-0.3,1.1-0.9,1.3-1.7v-0.3c0-1.3-1.1-1.9-3.4-1.9
		h-7.6L467.4,48.6z"/>
	<path class="st0" d="M500.5,58.7h18.1c-0.9-1.1-1.8-2.3-2.8-3.5c-1-1.2-2-2.4-2.9-3.7c-0.9-1.3-1.7-2.6-2.3-4s-1-2.8-1.1-4.3v-0.4
		c0-0.4,0.1-0.8,0.2-1.2c0.2-1.2,0.6-2.3,1.3-3.3c0.6-1,1.4-1.9,2.2-2.7c0.9-0.7,1.8-1.3,2.9-1.8c1-0.4,2.1-0.6,3.2-0.6H543l-2,11
		h-15.8c1,1.4,2,2.7,3,4c1,1.3,2,2.5,2.8,3.8c0.9,1.3,1.6,2.6,2.1,3.9c0.6,1.3,0.8,2.8,0.8,4.3c0,0.7-0.1,1.4-0.2,2.1
		c-0.2,1.1-0.5,2.1-1.1,3c-0.5,0.9-1.2,1.7-1.9,2.4s-1.6,1.2-2.6,1.6c-1,0.4-2,0.6-3,0.6h-26.8L500.5,58.7z"/>
	<path class="st0" d="M85.7,123.5h-19l-0.4,2.5h20.6l-2,11H51l6.4-36.5h33.8l-2,11H68.8l-0.4,2.5h19L85.7,123.5z"/>
	<path class="st0" d="M128.1,136.9h-12.9L105,120.1l-3,16.7H88.8l6.4-36.5h12.9l10.2,16.7l3-16.7h13.3L128.1,136.9z"/>
	<path class="st0" d="M151.8,113.1c-1.6,1.2-2.6,3-3,5.4l-0.1,0.2c-0.1,0.6-0.2,1.1-0.2,1.6c0,3.4,2.3,5.2,6.8,5.5h12.3l-2,11h-12.4
		c-3.3,0-6.2-0.3-8.8-1s-4.6-1.7-6.2-3.1c-1.6-1.4-2.7-3.3-3.2-5.6s-0.6-5.1,0-8.4v-0.2c0.6-3.3,1.5-6.1,2.9-8.5
		c1.4-2.3,3.2-4.2,5.3-5.6c2.1-1.4,4.6-2.5,7.3-3.1s5.8-1,9.1-1h12.4l-1.9,10.9h-11.4C155.7,111.3,153.3,111.9,151.8,113.1z"/>
	<path class="st0" d="M199.5,100.4h15.6l-16.9,20.1l-2.9,16.4H182l2.9-16.4l-9.8-20.2h15.1l3.4,6.9L199.5,100.4z"/>
	<path class="st0" d="M226.8,113.1c-1.6,1.2-2.6,3-3,5.4l-0.1,0.2c-0.1,0.6-0.2,1.1-0.2,1.6c0,3.4,2.3,5.2,6.8,5.5h12.3l-2,11h-12.4
		c-3.3,0-6.2-0.3-8.8-1s-4.6-1.7-6.2-3.1c-1.6-1.4-2.7-3.3-3.2-5.6s-0.6-5.1,0-8.4v-0.2c0.6-3.3,1.5-6.1,2.9-8.5
		c1.4-2.3,3.2-4.2,5.3-5.6c2.1-1.4,4.6-2.5,7.3-3.1s5.8-1,9.1-1h12.4l-1.9,10.9h-11.4C230.7,111.3,228.4,111.9,226.8,113.1z"/>
	<path class="st0" d="M244.7,136.9l6.4-36.5h13.3l-4.5,25.5h14.4l-2,11H244.7z"/>
	<path class="st0" d="M296.5,137.2c-2.9,0-5.5-0.3-7.9-0.8c-2.4-0.5-4.3-1.4-6-2.5s-2.9-2.6-3.8-4.4c-0.9-1.8-1.3-3.9-1.3-6.5
		c0-0.7,0-1.4,0.1-2.1c0.1-0.7,0.2-1.5,0.3-2.2v-0.1c0.6-3.3,1.6-6.1,3.1-8.4c1.4-2.3,3.2-4.2,5.4-5.7c2.1-1.5,4.6-2.6,7.4-3.2
		c2.8-0.7,5.9-1,9.2-1c2.9,0,5.5,0.3,7.9,0.8c2.4,0.5,4.3,1.3,6,2.5c1.6,1.1,2.9,2.6,3.8,4.3c0.9,1.8,1.3,3.9,1.3,6.4
		c0,0.7,0,1.4-0.1,2.2c-0.1,0.7-0.2,1.5-0.3,2.3v0.1c-0.6,3.3-1.6,6.2-3.1,8.5c-1.5,2.3-3.3,4.2-5.4,5.7c-2.1,1.5-4.6,2.5-7.4,3.2
		S299.8,137.2,296.5,137.2z M301.1,111.1c-1.6,0-3,0.2-4.1,0.5s-2,0.8-2.8,1.5c-0.7,0.7-1.3,1.4-1.7,2.4c-0.4,0.9-0.7,2-1,3.2v0.1
		c-0.1,0.3-0.2,1.1-0.2,2.4c0,1.6,0.5,2.9,1.6,3.8s2.9,1.3,5.6,1.3c1.6,0,2.9-0.2,4-0.5s2.1-0.8,2.8-1.5c0.7-0.6,1.3-1.4,1.8-2.4
		c0.4-0.9,0.8-2,1-3.2v-0.1c0.1-0.4,0.1-0.7,0.2-1.1c0-0.4,0.1-0.7,0.1-1.1c0-1.7-0.5-3-1.6-3.9
		C305.6,111.5,303.7,111.1,301.1,111.1z"/>
	<path class="st0" d="M335.5,136.9h-13.3l6.4-36.5h28.3c1.3,0,2.5,0.3,3.6,0.8s2.1,1.3,2.9,2.2c0.8,0.9,1.5,2,2,3.1s0.7,2.3,0.7,3.5
		c0,0.2,0,0.4,0,0.7c0,0.2,0,0.4-0.1,0.7l-0.8,4.4c-0.2,1.2-0.8,2.5-1.7,3.8c-0.9,1.3-2,2.5-3.2,3.6c-1.3,1.1-2.6,2-4,2.7
		c-1.4,0.7-2.8,1-4.1,1h-15L335.5,136.9z M339.1,116.2h9c1.4,0,2.3-0.2,2.9-0.6s0.9-1,1.1-1.8l0.1-0.6c0-0.6-0.2-1.1-0.6-1.4
		c-0.4-0.3-1.3-0.5-2.5-0.5h-9L339.1,116.2z"/>
	<path class="st0" d="M400.2,123.5h-19l-0.4,2.5h20.6l-2,11h-33.8l6.4-36.5h33.8l-2,11h-20.6l-0.4,2.5h19L400.2,123.5z"/>
	<path class="st0" d="M409.7,100.4h18.1c2.9,0,5.5,0.3,7.8,0.8s4.2,1.3,5.9,2.4c1.6,1.1,2.8,2.5,3.7,4.3c0.8,1.8,1.3,3.9,1.3,6.3
		c0,0.8,0,1.5-0.1,2.3c-0.1,0.7-0.2,1.5-0.3,2.2l-0.1,0.2c-0.6,3.3-1.5,6.1-2.9,8.4c-1.4,2.3-3.2,4.2-5.3,5.6
		c-2.1,1.4-4.5,2.5-7.3,3.1s-5.8,1-9.1,1h-18.1L409.7,100.4z M421.1,111.3l-2.6,14.6h4.8c5.3-0.4,8.3-2.8,9.1-7.2l0.1-0.2
		c0.1-0.7,0.2-1.3,0.2-1.9c0-1.8-0.6-3.1-1.8-4c-1.2-0.9-3.2-1.3-5.9-1.3H421.1z"/>
	<path class="st0" d="M446.5,136.9l6.4-36.5h13.3l-6.4,36.5H446.5z"/>
	<path class="st0" d="M492.8,131.3h-13.6l-2.9,5.6h-13.7l17.9-36.5h21.3l5,36.5h-13.1L492.8,131.3z M483.9,121.5h7.7l-1.8-11.5
		L483.9,121.5z"/>
</g>
</svg>
